<svg width="24" height="24" viewBox="0 0 24 24" fill="none" xmlns="http://www.w3.org/2000/svg">
<path d="M21.4085 21.4998H17.3517C17.1755 21.5033 17.0022 21.451 16.8541 21.3498C16.7059 21.2485 16.5895 21.1028 16.5197 20.9313L12.1156 10.0158C12.1041 9.97331 12.08 9.93588 12.0468 9.90904C12.0137 9.88221 11.9733 9.86741 11.9316 9.86683C11.8899 9.86626 11.8491 9.87994 11.8153 9.90585C11.7815 9.93176 11.7565 9.96852 11.744 10.0107L8.99933 16.9412C8.98444 16.9787 8.97852 17.0195 8.98211 17.06C8.9857 17.1005 8.99869 17.1394 9.01991 17.1733C9.04114 17.2072 9.06994 17.235 9.10376 17.2542C9.13758 17.2734 9.17536 17.2835 9.21374 17.2835H12.2306C12.322 17.2835 12.4114 17.312 12.4876 17.3655C12.5638 17.419 12.6234 17.4951 12.6591 17.5843L13.9799 20.7001C14.0149 20.7875 14.0289 20.8828 14.0207 20.9773C14.0125 21.0719 13.9824 21.1629 13.9329 21.2421C13.8835 21.3213 13.8163 21.3863 13.7374 21.4313C13.6585 21.4762 13.5703 21.4998 13.4807 21.4998H2.49773C2.41512 21.4993 2.33392 21.4771 2.26136 21.4353C2.1888 21.3934 2.12714 21.3332 2.08187 21.26C2.0366 21.1867 2.00913 21.1027 2.00192 21.0155C1.9947 20.9283 2.00795 20.8405 2.0405 20.76L9.02651 3.12518C9.09791 2.93853 9.22074 2.77904 9.37896 2.66753C9.53719 2.55602 9.72345 2.49766 9.91344 2.50009H13.9428C14.1328 2.49742 14.3192 2.55567 14.4775 2.66722C14.6358 2.77876 14.7586 2.93839 14.8298 3.12518L21.8642 20.76C21.8967 20.8404 21.91 20.928 21.9029 21.0151C21.8958 21.1022 21.8684 21.1861 21.8234 21.2593C21.7783 21.3326 21.7168 21.3928 21.6444 21.4348C21.572 21.4767 21.491 21.4991 21.4085 21.4998Z" fill="#EB1000"/>
</svg>
